<svg width="52" height="52" viewBox="0 0 52 52" fill="none" xmlns="http://www.w3.org/2000/svg">
<path d="M1.96155 12.2885C1.40926 12.2885 0.961548 12.7362 0.961548 13.2885C0.961548 13.8408 1.40926 14.2885 1.96155 14.2885V13.2885V12.2885ZM7.88462 14.2885C8.43691 14.2885 8.88462 13.8408 8.88462 13.2885C8.88462 12.7362 8.43691 12.2885 7.88462 12.2885V13.2885V14.2885ZM1.96155 18.6442C1.40926 18.6442 0.961548 19.092 0.961548 19.6442C0.961548 20.1965 1.40926 20.6442 1.96155 20.6442V19.6442V18.6442ZM7.88462 20.6442C8.43691 20.6442 8.88462 20.1965 8.88462 19.6442C8.88462 19.092 8.43691 18.6442 7.88462 18.6442V19.6442V20.6442ZM1.96155 25C1.40926 25 0.961548 25.4477 0.961548 26C0.961548 26.5523 1.40926 27 1.96155 27V26V25ZM7.88462 27C8.43691 27 8.88462 26.5523 8.88462 26C8.88462 25.4477 8.43691 25 7.88462 25V26V27ZM1.96155 31.3558C1.40926 31.3558 0.961548 31.8035 0.961548 32.3558C0.961548 32.9081 1.40926 33.3558 1.96155 33.3558V32.3558V31.3558ZM7.88462 33.3558C8.43691 33.3558 8.88462 32.9081 8.88462 32.3558C8.88462 31.8035 8.43691 31.3558 7.88462 31.3558V32.3558V33.3558ZM1.96155 37.7115C1.40926 37.7115 0.961548 38.1593 0.961548 38.7115C0.961548 39.2638 1.40926 39.7115 1.96155 39.7115V38.7115V37.7115ZM7.88462 39.7115C8.43691 39.7115 8.88462 39.2638 8.88462 38.7115C8.88462 38.1593 8.43691 37.7115 7.88462 37.7115V38.7115V39.7115ZM44.1154 12.2885C43.5631 12.2885 43.1154 12.7362 43.1154 13.2885C43.1154 13.8408 43.5631 14.2885 44.1154 14.2885V13.2885V12.2885ZM50.0385 14.2885C50.5908 14.2885 51.0385 13.8408 51.0385 13.2885C51.0385 12.7362 50.5908 12.2885 50.0385 12.2885V13.2885V14.2885ZM44.1154 18.6442C43.5631 18.6442 43.1154 19.092 43.1154 19.6442C43.1154 20.1965 43.5631 20.6442 44.1154 20.6442V19.6442V18.6442ZM50.0385 20.6442C50.5908 20.6442 51.0385 20.1965 51.0385 19.6442C51.0385 19.092 50.5908 18.6442 50.0385 18.6442V19.6442V20.6442ZM44.1154 25C43.5631 25 43.1154 25.4477 43.1154 26C43.1154 26.5523 43.5631 27 44.1154 27V26V25ZM50.0385 27C50.5908 27 51.0385 26.5523 51.0385 26C51.0385 25.4477 50.5908 25 50.0385 25V26V27ZM44.1154 31.3558C43.5631 31.3558 43.1154 31.8035 43.1154 32.3558C43.1154 32.9081 43.5631 33.3558 44.1154 33.3558V32.3558V31.3558ZM50.0385 33.3558C50.5908 33.3558 51.0385 32.9081 51.0385 32.3558C51.0385 31.8035 50.5908 31.3558 50.0385 31.3558V32.3558V33.3558ZM44.1154 37.7115C43.5631 37.7115 43.1154 38.1593 43.1154 38.7115C43.1154 39.2638 43.5631 39.7115 44.1154 39.7115V38.7115V37.7115ZM50.0385 39.7115C50.5908 39.7115 51.0385 39.2638 51.0385 38.7115C51.0385 38.1593 50.5908 37.7115 50.0385 37.7115V38.7115V39.7115ZM12.2885 50.0385C12.2885 50.5908 12.7362 51.0385 13.2885 51.0385C13.8408 51.0385 14.2885 50.5908 14.2885 50.0385H13.2885H12.2885ZM14.2885 44.1154C14.2885 43.5631 13.8408 43.1154 13.2885 43.1154C12.7362 43.1154 12.2885 43.5631 12.2885 44.1154H13.2885H14.2885ZM18.6442 50.0385C18.6442 50.5908 19.092 51.0385 19.6442 51.0385C20.1965 51.0385 20.6442 50.5908 20.6442 50.0385H19.6442H18.6442ZM20.6442 44.1154C20.6442 43.5631 20.1965 43.1154 19.6442 43.1154C19.092 43.1154 18.6442 43.5631 18.6442 44.1154H19.6442H20.6442ZM25 50.0385C25 50.5908 25.4477 51.0385 26 51.0385C26.5523 51.0385 27 50.5908 27 50.0385H26H25ZM27 44.1154C27 43.5631 26.5523 43.1154 26 43.1154C25.4477 43.1154 25 43.5631 25 44.1154H26H27ZM31.3558 50.0385C31.3558 50.5908 31.8035 51.0385 32.3558 51.0385C32.9081 51.0385 33.3558 50.5908 33.3558 50.0385H32.3558H31.3558ZM33.3558 44.1154C33.3558 43.5631 32.9081 43.1154 32.3558 43.1154C31.8035 43.1154 31.3558 43.5631 31.3558 44.1154H32.3558H33.3558ZM37.7115 50.0385C37.7115 50.5908 38.1593 51.0385 38.7115 51.0385C39.2638 51.0385 39.7115 50.5908 39.7115 50.0385H38.7115H37.7115ZM39.7115 44.1154C39.7115 43.5631 39.2638 43.1154 38.7115 43.1154C38.1593 43.1154 37.7115 43.5631 37.7115 44.1154H38.7115H39.7115ZM12.2885 7.88462C12.2885 8.43691 12.7362 8.88462 13.2885 8.88462C13.8408 8.88462 14.2885 8.43691 14.2885 7.88462H13.2885H12.2885ZM14.2885 1.96155C14.2885 1.40926 13.8408 0.961548 13.2885 0.961548C12.7362 0.961548 12.2885 1.40926 12.2885 1.96155H13.2885H14.2885ZM18.6442 7.88462C18.6442 8.43691 19.092 8.88462 19.6442 8.88462C20.1965 8.88462 20.6442 8.43691 20.6442 7.88462H19.6442H18.6442ZM20.6442 1.96155C20.6442 1.40926 20.1965 0.961548 19.6442 0.961548C19.092 0.961548 18.6442 1.40926 18.6442 1.96155H19.6442H20.6442ZM25 7.88462C25 8.43691 25.4477 8.88462 26 8.88462C26.5523 8.88462 27 8.43691 27 7.88462H26H25ZM27 1.96155C27 1.40926 26.5523 0.961548 26 0.961548C25.4477 0.961548 25 1.40926 25 1.96155H26H27ZM31.3558 7.88462C31.3558 8.43691 31.8035 8.88462 32.3558 8.88462C32.9081 8.88462 33.3558 8.43691 33.3558 7.88462H32.3558H31.3558ZM33.3558 1.96155C33.3558 1.40926 32.9081 0.961548 32.3558 0.961548C31.8035 0.961548 31.3558 1.40926 31.3558 1.96155H32.3558H33.3558ZM37.7115 7.88462C37.7115 8.43691 38.1593 8.88462 38.7115 8.88462C39.2638 8.88462 39.7115 8.43691 39.7115 7.88462H38.7115H37.7115ZM39.7115 1.96155C39.7115 1.40926 39.2638 0.961548 38.7115 0.961548C38.1593 0.961548 37.7115 1.40926 37.7115 1.96155H38.7115H39.7115ZM7.88462 15.3822C7.33234 15.3822 6.88462 15.8299 6.88462 16.3822C6.88462 16.9345 7.33234 17.3822 7.88462 17.3822V16.3822V15.3822ZM16.2428 16.3822V17.3822C16.434 17.3822 16.6212 17.3274 16.7822 17.2243L16.2428 16.3822ZM21.0721 13.2885V12.2885C20.8809 12.2885 20.6937 12.3433 20.5327 12.4464L21.0721 13.2885ZM28.2476 14.2885C28.7999 14.2885 29.2476 13.8408 29.2476 13.2885C29.2476 12.7362 28.7999 12.2885 28.2476 12.2885V13.2885V14.2885ZM7.88462 24.9712C7.33234 24.9712 6.88462 25.4189 6.88462 25.9712C6.88462 26.5234 7.33234 26.9712 7.88462 26.9712V25.9712V24.9712ZM19.6442 25.9712V26.9712C19.8958 26.9712 20.1381 26.8764 20.3228 26.7057L19.6442 25.9712ZM25.0745 20.9543V19.9543C24.823 19.9543 24.5807 20.0491 24.3959 20.2198L25.0745 20.9543ZM33.6298 21.9543C34.1821 21.9543 34.6298 21.5066 34.6298 20.9543C34.6298 20.4021 34.1821 19.9543 33.6298 19.9543V20.9543V21.9543ZM20.3728 25.0931C19.8879 24.8288 19.2805 25.0077 19.0162 25.4926C18.7519 25.9775 18.9307 26.5849 19.4157 26.8492L19.8942 25.9712L20.3728 25.0931ZM28.2476 30.524L27.769 31.4021C27.9159 31.4821 28.0804 31.524 28.2476 31.524V30.524ZM32.3558 31.524C32.9081 31.524 33.3558 31.0763 33.3558 30.524C33.3558 29.9718 32.9081 29.524 32.3558 29.524V30.524V31.524ZM7.88462 33.9399C7.33234 33.9399 6.88462 34.3876 6.88462 34.9399C6.88462 35.4922 7.33234 35.9399 7.88462 35.9399V34.9399V33.9399ZM19.0721 34.9399L19.5748 34.0754C19.4221 33.9867 19.2487 33.9399 19.0721 33.9399V34.9399ZM25.0048 38.3894L24.5022 39.2539C24.6548 39.3427 24.8282 39.3894 25.0048 39.3894V38.3894ZM33.399 39.3894C33.9513 39.3894 34.399 38.9417 34.399 38.3894C34.399 37.8371 33.9513 37.3894 33.399 37.3894V38.3894V39.3894ZM11.4327 7.88462V8.88462H40.5697V7.88462V6.88462H11.4327V7.88462ZM40.5697 7.88462V8.88462C41.977 8.88462 43.1178 10.0254 43.1178 11.4327H44.1178H45.1178C45.1178 8.92087 43.0816 6.88462 40.5697 6.88462V7.88462ZM44.1178 11.4327H43.1178V40.5697H44.1178H45.1178V11.4327H44.1178ZM44.1178 40.5697H43.1178C43.1178 41.977 41.977 43.1178 40.5697 43.1178V44.1178V45.1178C43.0816 45.1178 45.1178 43.0816 45.1178 40.5697H44.1178ZM40.5697 44.1178V43.1178H11.4327V44.1178V45.1178H40.5697V44.1178ZM11.4327 44.1178V43.1178C10.0254 43.1178 8.88462 41.977 8.88462 40.5697H7.88462H6.88462C6.88462 43.0816 8.92087 45.1178 11.4327 45.1178V44.1178ZM7.88462 40.5697H8.88462V11.4327H7.88462H6.88462V40.5697H7.88462ZM7.88462 11.4327H8.88462C8.88462 10.0254 10.0254 8.88462 11.4327 8.88462V7.88462V6.88462C8.92087 6.88462 6.88462 8.92087 6.88462 11.4327H7.88462ZM1.96155 13.2885V14.2885H7.88462V13.2885V12.2885H1.96155V13.2885ZM1.96155 19.6442V20.6442H7.88462V19.6442V18.6442H1.96155V19.6442ZM1.96155 26V27H7.88462V26V25H1.96155V26ZM1.96155 32.3558V33.3558H7.88462V32.3558V31.3558H1.96155V32.3558ZM1.96155 38.7115V39.7115H7.88462V38.7115V37.7115H1.96155V38.7115ZM44.1154 13.2885V14.2885H50.0385V13.2885V12.2885H44.1154V13.2885ZM44.1154 19.6442V20.6442H50.0385V19.6442V18.6442H44.1154V19.6442ZM44.1154 26V27H50.0385V26V25H44.1154V26ZM44.1154 32.3558V33.3558H50.0385V32.3558V31.3558H44.1154V32.3558ZM44.1154 38.7115V39.7115H50.0385V38.7115V37.7115H44.1154V38.7115ZM13.2885 50.0385H14.2885V44.1154H13.2885H12.2885V50.0385H13.2885ZM19.6442 50.0385H20.6442V44.1154H19.6442H18.6442V50.0385H19.6442ZM26 50.0385H27V44.1154H26H25V50.0385H26ZM32.3558 50.0385H33.3558V44.1154H32.3558H31.3558V50.0385H32.3558ZM38.7115 50.0385H39.7115V44.1154H38.7115H37.7115V50.0385H38.7115ZM13.2885 7.88462H14.2885V1.96155H13.2885H12.2885V7.88462H13.2885ZM19.6442 7.88462H20.6442V1.96155H19.6442H18.6442V7.88462H19.6442ZM26 7.88462H27V1.96155H26H25V7.88462H26ZM32.3558 7.88462H33.3558V1.96155H32.3558H31.3558V7.88462H32.3558ZM38.7115 7.88462H39.7115V1.96155H38.7115H37.7115V7.88462H38.7115ZM7.88462 16.3822V17.3822H16.2428V16.3822V15.3822H7.88462V16.3822ZM16.2428 16.3822L16.7822 17.2243L21.6115 14.1305L21.0721 13.2885L20.5327 12.4464L15.7034 15.5402L16.2428 16.3822ZM21.0721 13.2885V14.2885H28.2476V13.2885V12.2885H21.0721V13.2885ZM34.1082 13.2885H33.1082C33.1082 14.2218 32.3516 14.9784 31.4183 14.9784V15.9784V16.9784C33.4562 16.9784 35.1082 15.3263 35.1082 13.2885H34.1082ZM31.4183 15.9784V14.9784C30.485 14.9784 29.7284 14.2218 29.7284 13.2885H28.7284H27.7284C27.7284 15.3263 29.3804 16.9784 31.4183 16.9784V15.9784ZM28.7284 13.2885H29.7284C29.7284 12.3552 30.485 11.5986 31.4183 11.5986V10.5986V9.59857C29.3804 9.59857 27.7284 11.2506 27.7284 13.2885H28.7284ZM31.4183 10.5986V11.5986C32.3516 11.5986 33.1082 12.3552 33.1082 13.2885H34.1082H35.1082C35.1082 11.2506 33.4562 9.59857 31.4183 9.59857V10.5986ZM39.488 20.9543H38.488C38.488 21.8876 37.7314 22.6442 36.7981 22.6442V23.6442V24.6442C38.836 24.6442 40.488 22.9922 40.488 20.9543H39.488ZM36.7981 23.6442V22.6442C35.8648 22.6442 35.1082 21.8876 35.1082 20.9543H34.1082H33.1082C33.1082 22.9922 34.7602 24.6442 36.7981 24.6442V23.6442ZM34.1082 20.9543H35.1082C35.1082 20.021 35.8648 19.2644 36.7981 19.2644V18.2644V17.2644C34.7602 17.2644 33.1082 18.9165 33.1082 20.9543H34.1082ZM36.7981 18.2644V19.2644C37.7314 19.2644 38.488 20.021 38.488 20.9543H39.488H40.488C40.488 18.9165 38.836 17.2644 36.7981 17.2644V18.2644ZM38.1755 30.524H37.1755C37.1755 31.4574 36.4189 32.214 35.4856 32.214V33.214V34.214C37.5235 34.214 39.1755 32.5619 39.1755 30.524H38.1755ZM35.4856 33.214V32.214C34.5523 32.214 33.7957 31.4574 33.7957 30.524H32.7957H31.7957C31.7957 32.5619 33.4477 34.214 35.4856 34.214V33.214ZM32.7957 30.524H33.7957C33.7957 29.5907 34.5523 28.8341 35.4856 28.8341V27.8341V26.8341C33.4477 26.8341 31.7957 28.4862 31.7957 30.524H32.7957ZM35.4856 27.8341V28.8341C36.4189 28.8341 37.1755 29.5907 37.1755 30.524H38.1755H39.1755C39.1755 28.4862 37.5235 26.8341 35.4856 26.8341V27.8341ZM7.88462 25.9712V26.9712H19.6442V25.9712V24.9712H7.88462V25.9712ZM19.6442 25.9712L20.3228 26.7057L25.7531 21.6889L25.0745 20.9543L24.3959 20.2198L18.9656 25.2366L19.6442 25.9712ZM25.0745 20.9543V21.9543H33.6298V20.9543V19.9543H25.0745V20.9543ZM19.8942 25.9712L19.4157 26.8492L27.769 31.4021L28.2476 30.524L28.7262 29.646L20.3728 25.0931L19.8942 25.9712ZM28.2476 30.524V31.524H32.3558V30.524V29.524H28.2476V30.524ZM39.2356 38.3894H38.2356C38.2356 39.3227 37.479 40.0793 36.5457 40.0793V41.0793V42.0793C38.5835 42.0793 40.2356 40.4273 40.2356 38.3894H39.2356ZM36.5457 41.0793V40.0793C35.6124 40.0793 34.8558 39.3227 34.8558 38.3894H33.8558H32.8558C32.8558 40.4273 34.5078 42.0793 36.5457 42.0793V41.0793ZM33.8558 38.3894H34.8558C34.8558 37.4561 35.6124 36.6995 36.5457 36.6995V35.6995V34.6995C34.5078 34.6995 32.8558 36.3516 32.8558 38.3894H33.8558ZM36.5457 35.6995V36.6995C37.479 36.6995 38.2356 37.4561 38.2356 38.3894H39.2356H40.2356C40.2356 36.3516 38.5835 34.6995 36.5457 34.6995V35.6995ZM7.88462 34.9399V35.9399H19.0721V34.9399V33.9399H7.88462V34.9399ZM19.0721 34.9399L18.5695 35.8044L24.5022 39.2539L25.0048 38.3894L25.5075 37.5249L19.5748 34.0754L19.0721 34.9399ZM25.0048 38.3894V39.3894H33.399V38.3894V37.3894H25.0048V38.3894Z" fill="#F5F5F5"/>
</svg>
