<svg width="51" height="51" viewBox="0 0 51 51" fill="none" xmlns="http://www.w3.org/2000/svg">
<path d="M1 11.3269C0.447715 11.3269 0 11.7746 0 12.3269C0 12.8792 0.447715 13.3269 1 13.3269V12.3269V11.3269ZM6.92308 13.3269C7.47536 13.3269 7.92308 12.8792 7.92308 12.3269C7.92308 11.7746 7.47536 11.3269 6.92308 11.3269V12.3269V13.3269ZM1 17.6827C0.447715 17.6827 0 18.1304 0 18.6827C0 19.235 0.447715 19.6827 1 19.6827V18.6827V17.6827ZM6.92308 19.6827C7.47536 19.6827 7.92308 19.235 7.92308 18.6827C7.92308 18.1304 7.47536 17.6827 6.92308 17.6827V18.6827V19.6827ZM1 24.0385C0.447715 24.0385 0 24.4862 0 25.0385C0 25.5907 0.447715 26.0385 1 26.0385V25.0385V24.0385ZM6.92308 26.0385C7.47536 26.0385 7.92308 25.5907 7.92308 25.0385C7.92308 24.4862 7.47536 24.0385 6.92308 24.0385V25.0385V26.0385ZM1 30.3942C0.447715 30.3942 0 30.8419 0 31.3942C0 31.9465 0.447715 32.3942 1 32.3942V31.3942V30.3942ZM6.92308 32.3942C7.47536 32.3942 7.92308 31.9465 7.92308 31.3942C7.92308 30.8419 7.47536 30.3942 6.92308 30.3942V31.3942V32.3942ZM1 36.75C0.447715 36.75 0 37.1977 0 37.75C0 38.3023 0.447715 38.75 1 38.75V37.75V36.75ZM6.92308 38.75C7.47536 38.75 7.92308 38.3023 7.92308 37.75C7.92308 37.1977 7.47536 36.75 6.92308 36.75V37.75V38.75ZM43.1538 11.3269C42.6016 11.3269 42.1538 11.7746 42.1538 12.3269C42.1538 12.8792 42.6016 13.3269 43.1538 13.3269V12.3269V11.3269ZM49.0769 13.3269C49.6292 13.3269 50.0769 12.8792 50.0769 12.3269C50.0769 11.7746 49.6292 11.3269 49.0769 11.3269V12.3269V13.3269ZM43.1538 17.6827C42.6016 17.6827 42.1538 18.1304 42.1538 18.6827C42.1538 19.235 42.6016 19.6827 43.1538 19.6827V18.6827V17.6827ZM49.0769 19.6827C49.6292 19.6827 50.0769 19.235 50.0769 18.6827C50.0769 18.1304 49.6292 17.6827 49.0769 17.6827V18.6827V19.6827ZM43.1538 24.0385C42.6016 24.0385 42.1538 24.4862 42.1538 25.0385C42.1538 25.5907 42.6016 26.0385 43.1538 26.0385V25.0385V24.0385ZM49.0769 26.0385C49.6292 26.0385 50.0769 25.5907 50.0769 25.0385C50.0769 24.4862 49.6292 24.0385 49.0769 24.0385V25.0385V26.0385ZM43.1538 30.3942C42.6016 30.3942 42.1538 30.8419 42.1538 31.3942C42.1538 31.9465 42.6016 32.3942 43.1538 32.3942V31.3942V30.3942ZM49.0769 32.3942C49.6292 32.3942 50.0769 31.9465 50.0769 31.3942C50.0769 30.8419 49.6292 30.3942 49.0769 30.3942V31.3942V32.3942ZM43.1538 36.75C42.6016 36.75 42.1538 37.1977 42.1538 37.75C42.1538 38.3023 42.6016 38.75 43.1538 38.75V37.75V36.75ZM49.0769 38.75C49.6292 38.75 50.0769 38.3023 50.0769 37.75C50.0769 37.1977 49.6292 36.75 49.0769 36.75V37.75V38.75ZM11.3269 49.0769C11.3269 49.6292 11.7746 50.0769 12.3269 50.0769C12.8792 50.0769 13.3269 49.6292 13.3269 49.0769H12.3269H11.3269ZM13.3269 43.1538C13.3269 42.6016 12.8792 42.1538 12.3269 42.1538C11.7746 42.1538 11.3269 42.6016 11.3269 43.1538H12.3269H13.3269ZM17.6827 49.0769C17.6827 49.6292 18.1304 50.0769 18.6827 50.0769C19.235 50.0769 19.6827 49.6292 19.6827 49.0769H18.6827H17.6827ZM19.6827 43.1538C19.6827 42.6016 19.235 42.1538 18.6827 42.1538C18.1304 42.1538 17.6827 42.6016 17.6827 43.1538H18.6827H19.6827ZM24.0385 49.0769C24.0385 49.6292 24.4862 50.0769 25.0385 50.0769C25.5907 50.0769 26.0385 49.6292 26.0385 49.0769H25.0385H24.0385ZM26.0385 43.1538C26.0385 42.6016 25.5907 42.1538 25.0385 42.1538C24.4862 42.1538 24.0385 42.6016 24.0385 43.1538H25.0385H26.0385ZM30.3942 49.0769C30.3942 49.6292 30.8419 50.0769 31.3942 50.0769C31.9465 50.0769 32.3942 49.6292 32.3942 49.0769H31.3942H30.3942ZM32.3942 43.1538C32.3942 42.6016 31.9465 42.1538 31.3942 42.1538C30.8419 42.1538 30.3942 42.6016 30.3942 43.1538H31.3942H32.3942ZM36.75 49.0769C36.75 49.6292 37.1977 50.0769 37.75 50.0769C38.3023 50.0769 38.75 49.6292 38.75 49.0769H37.75H36.75ZM38.75 43.1538C38.75 42.6016 38.3023 42.1538 37.75 42.1538C37.1977 42.1538 36.75 42.6016 36.75 43.1538H37.75H38.75ZM11.3269 6.92308C11.3269 7.47536 11.7746 7.92308 12.3269 7.92308C12.8792 7.92308 13.3269 7.47536 13.3269 6.92308H12.3269H11.3269ZM13.3269 1C13.3269 0.447715 12.8792 0 12.3269 0C11.7746 0 11.3269 0.447715 11.3269 1H12.3269H13.3269ZM17.6827 6.92308C17.6827 7.47536 18.1304 7.92308 18.6827 7.92308C19.235 7.92308 19.6827 7.47536 19.6827 6.92308H18.6827H17.6827ZM19.6827 1C19.6827 0.447715 19.235 0 18.6827 0C18.1304 0 17.6827 0.447715 17.6827 1H18.6827H19.6827ZM24.0385 6.92308C24.0385 7.47536 24.4862 7.92308 25.0385 7.92308C25.5907 7.92308 26.0385 7.47536 26.0385 6.92308H25.0385H24.0385ZM26.0385 1C26.0385 0.447715 25.5907 0 25.0385 0C24.4862 0 24.0385 0.447715 24.0385 1H25.0385H26.0385ZM30.3942 6.92308C30.3942 7.47536 30.8419 7.92308 31.3942 7.92308C31.9465 7.92308 32.3942 7.47536 32.3942 6.92308H31.3942H30.3942ZM32.3942 1C32.3942 0.447715 31.9465 0 31.3942 0C30.8419 0 30.3942 0.447715 30.3942 1H31.3942H32.3942ZM36.75 6.92308C36.75 7.47536 37.1977 7.92308 37.75 7.92308C38.3023 7.92308 38.75 7.47536 38.75 6.92308H37.75H36.75ZM38.75 1C38.75 0.447715 38.3023 0 37.75 0C37.1977 0 36.75 0.447715 36.75 1H37.75H38.75ZM6.92308 14.4207C6.37079 14.4207 5.92308 14.8684 5.92308 15.4207C5.92308 15.973 6.37079 16.4207 6.92308 16.4207V15.4207V14.4207ZM15.2812 15.4207V16.4207C15.4725 16.4207 15.6597 16.3659 15.8207 16.2627L15.2812 15.4207ZM20.1106 12.3269V11.3269C19.9194 11.3269 19.7322 11.3817 19.5712 11.4849L20.1106 12.3269ZM27.2861 13.3269C27.8383 13.3269 28.2861 12.8792 28.2861 12.3269C28.2861 11.7746 27.8383 11.3269 27.2861 11.3269V12.3269V13.3269ZM6.92308 24.0096C6.37079 24.0096 5.92308 24.4573 5.92308 25.0096C5.92308 25.5619 6.37079 26.0096 6.92308 26.0096V25.0096V24.0096ZM18.6827 25.0096V26.0096C18.9342 26.0096 19.1765 25.9148 19.3613 25.7441L18.6827 25.0096ZM24.113 19.9928V18.9928C23.8614 18.9928 23.6191 19.0876 23.4344 19.2583L24.113 19.9928ZM32.6683 20.9928C33.2206 20.9928 33.6683 20.5451 33.6683 19.9928C33.6683 19.4405 33.2206 18.9928 32.6683 18.9928V19.9928V20.9928ZM19.4113 24.1316C18.9263 23.8673 18.3189 24.0461 18.0546 24.531C17.7903 25.016 17.9692 25.6234 18.4541 25.8877L18.9327 25.0096L19.4113 24.1316ZM27.2861 29.5625L26.8075 30.4405C26.9543 30.5206 27.1188 30.5625 27.2861 30.5625V29.5625ZM31.3942 30.5625C31.9465 30.5625 32.3942 30.1148 32.3942 29.5625C32.3942 29.0102 31.9465 28.5625 31.3942 28.5625V29.5625V30.5625ZM6.92308 32.9784C6.37079 32.9784 5.92308 33.4261 5.92308 33.9784C5.92308 34.5306 6.37079 34.9784 6.92308 34.9784V33.9784V32.9784ZM18.1106 33.9784L18.6132 33.1139C18.4606 33.0251 18.2872 32.9784 18.1106 32.9784V33.9784ZM24.0433 37.4279L23.5406 38.2924C23.6933 38.3811 23.8667 38.4279 24.0433 38.4279V37.4279ZM32.4375 38.4279C32.9898 38.4279 33.4375 37.9802 33.4375 37.4279C33.4375 36.8756 32.9898 36.4279 32.4375 36.4279V37.4279V38.4279ZM10.4712 6.92308V7.92308H39.6082V6.92308V5.92308H10.4712V6.92308ZM39.6082 6.92308V7.92308C41.0154 7.92308 42.1562 9.06389 42.1562 10.4712H43.1562H44.1562C44.1562 7.95932 42.12 5.92308 39.6082 5.92308V6.92308ZM43.1562 10.4712H42.1562V39.6082H43.1562H44.1562V10.4712H43.1562ZM43.1562 39.6082H42.1562C42.1562 41.0154 41.0154 42.1562 39.6082 42.1562V43.1562V44.1562C42.12 44.1562 44.1562 42.12 44.1562 39.6082H43.1562ZM39.6082 43.1562V42.1562H10.4712V43.1562V44.1562H39.6082V43.1562ZM10.4712 43.1562V42.1562C9.06389 42.1562 7.92308 41.0154 7.92308 39.6082H6.92308H5.92308C5.92308 42.12 7.95932 44.1562 10.4712 44.1562V43.1562ZM6.92308 39.6082H7.92308V10.4712H6.92308H5.92308V39.6082H6.92308ZM6.92308 10.4712H7.92308C7.92308 9.06389 9.06389 7.92308 10.4712 7.92308V6.92308V5.92308C7.95932 5.92308 5.92308 7.95932 5.92308 10.4712H6.92308ZM1 12.3269V13.3269H6.92308V12.3269V11.3269H1V12.3269ZM1 18.6827V19.6827H6.92308V18.6827V17.6827H1V18.6827ZM1 25.0385V26.0385H6.92308V25.0385V24.0385H1V25.0385ZM1 31.3942V32.3942H6.92308V31.3942V30.3942H1V31.3942ZM1 37.75V38.75H6.92308V37.75V36.75H1V37.75ZM43.1538 12.3269V13.3269H49.0769V12.3269V11.3269H43.1538V12.3269ZM43.1538 18.6827V19.6827H49.0769V18.6827V17.6827H43.1538V18.6827ZM43.1538 25.0385V26.0385H49.0769V25.0385V24.0385H43.1538V25.0385ZM43.1538 31.3942V32.3942H49.0769V31.3942V30.3942H43.1538V31.3942ZM43.1538 37.75V38.75H49.0769V37.75V36.75H43.1538V37.75ZM12.3269 49.0769H13.3269V43.1538H12.3269H11.3269V49.0769H12.3269ZM18.6827 49.0769H19.6827V43.1538H18.6827H17.6827V49.0769H18.6827ZM25.0385 49.0769H26.0385V43.1538H25.0385H24.0385V49.0769H25.0385ZM31.3942 49.0769H32.3942V43.1538H31.3942H30.3942V49.0769H31.3942ZM37.75 49.0769H38.75V43.1538H37.75H36.75V49.0769H37.75ZM12.3269 6.92308H13.3269V1H12.3269H11.3269V6.92308H12.3269ZM18.6827 6.92308H19.6827V1H18.6827H17.6827V6.92308H18.6827ZM25.0385 6.92308H26.0385V1H25.0385H24.0385V6.92308H25.0385ZM31.3942 6.92308H32.3942V1H31.3942H30.3942V6.92308H31.3942ZM37.75 6.92308H38.75V1H37.75H36.75V6.92308H37.75ZM6.92308 15.4207V16.4207H15.2812V15.4207V14.4207H6.92308V15.4207ZM15.2812 15.4207L15.8207 16.2627L20.65 13.169L20.1106 12.3269L19.5712 11.4849L14.7418 14.5786L15.2812 15.4207ZM20.1106 12.3269V13.3269H27.2861V12.3269V11.3269H20.1106V12.3269ZM33.1466 12.3269H32.1466C32.1466 13.2602 31.39 14.0168 30.4567 14.0168V15.0168V16.0168C32.4946 16.0168 34.1466 14.3648 34.1466 12.3269H33.1466ZM30.4567 15.0168V14.0168C29.5234 14.0168 28.7668 13.2602 28.7668 12.3269H27.7668H26.7668C26.7668 14.3648 28.4189 16.0168 30.4567 16.0168V15.0168ZM27.7668 12.3269H28.7668C28.7668 11.3936 29.5234 10.637 30.4567 10.637V9.63702V8.63702C28.4189 8.63702 26.7668 10.289 26.7668 12.3269H27.7668ZM30.4567 9.63702V10.637C31.39 10.637 32.1466 11.3936 32.1466 12.3269H33.1466H34.1466C34.1466 10.289 32.4946 8.63702 30.4567 8.63702V9.63702ZM38.5264 19.9928H37.5264C37.5264 20.9261 36.7698 21.6827 35.8365 21.6827V22.6827V23.6827C37.8744 23.6827 39.5264 22.0307 39.5264 19.9928H38.5264ZM35.8365 22.6827V21.6827C34.9032 21.6827 34.1466 20.9261 34.1466 19.9928H33.1466H32.1466C32.1466 22.0307 33.7987 23.6827 35.8365 23.6827V22.6827ZM33.1466 19.9928H34.1466C34.1466 19.0595 34.9032 18.3029 35.8365 18.3029V17.3029V16.3029C33.7987 16.3029 32.1466 17.9549 32.1466 19.9928H33.1466ZM35.8365 17.3029V18.3029C36.7698 18.3029 37.5264 19.0595 37.5264 19.9928H38.5264H39.5264C39.5264 17.9549 37.8744 16.3029 35.8365 16.3029V17.3029ZM37.2139 29.5625H36.2139C36.2139 30.4958 35.4573 31.2524 34.524 31.2524V32.2524V33.2524C36.5619 33.2524 38.2139 31.6004 38.2139 29.5625H37.2139ZM34.524 32.2524V31.2524C33.5907 31.2524 32.8341 30.4958 32.8341 29.5625H31.8341H30.8341C30.8341 31.6004 32.4862 33.2524 34.524 33.2524V32.2524ZM31.8341 29.5625H32.8341C32.8341 28.6292 33.5907 27.8726 34.524 27.8726V26.8726V25.8726C32.4862 25.8726 30.8341 27.5246 30.8341 29.5625H31.8341ZM34.524 26.8726V27.8726C35.4573 27.8726 36.2139 28.6292 36.2139 29.5625H37.2139H38.2139C38.2139 27.5246 36.5619 25.8726 34.524 25.8726V26.8726ZM6.92308 25.0096V26.0096H18.6827V25.0096V24.0096H6.92308V25.0096ZM18.6827 25.0096L19.3613 25.7441L24.7916 20.7273L24.113 19.9928L23.4344 19.2583L18.0041 24.2751L18.6827 25.0096ZM24.113 19.9928V20.9928H32.6683V19.9928V18.9928H24.113V19.9928ZM18.9327 25.0096L18.4541 25.8877L26.8075 30.4405L27.2861 29.5625L27.7646 28.6845L19.4113 24.1316L18.9327 25.0096ZM27.2861 29.5625V30.5625H31.3942V29.5625V28.5625H27.2861V29.5625ZM38.274 37.4279H37.274C37.274 38.3612 36.5174 39.1178 35.5841 39.1178V40.1178V41.1178C37.622 41.1178 39.274 39.4657 39.274 37.4279H38.274ZM35.5841 40.1178V39.1178C34.6508 39.1178 33.8942 38.3612 33.8942 37.4279H32.8942H31.8942C31.8942 39.4657 33.5463 41.1178 35.5841 41.1178V40.1178ZM32.8942 37.4279H33.8942C33.8942 36.4946 34.6508 35.738 35.5841 35.738V34.738V33.738C33.5463 33.738 31.8942 35.39 31.8942 37.4279H32.8942ZM35.5841 34.738V35.738C36.5174 35.738 37.274 36.4946 37.274 37.4279H38.274H39.274C39.274 35.39 37.622 33.738 35.5841 33.738V34.738ZM6.92308 33.9784V34.9784H18.1106V33.9784V32.9784H6.92308V33.9784ZM18.1106 33.9784L17.6079 34.8429L23.5406 38.2924L24.0433 37.4279L24.5459 36.5634L18.6132 33.1139L18.1106 33.9784ZM24.0433 37.4279V38.4279H32.4375V37.4279V36.4279H24.0433V37.4279Z" fill="#111111"/>
</svg>
