<svg width="24" height="24" viewBox="0 0 24 24" fill="none" xmlns="http://www.w3.org/2000/svg">
<path d="M1 2C1 1.44772 1.44772 1 2 1H22C22.5523 1 23 1.44772 23 2V5C23 5.55228 22.5523 6 22 6H2C1.44772 6 1 5.55228 1 5V2Z" fill="#1E1E1E"/>
<path d="M1 10.5C1 9.94772 1.44772 9.5 2 9.5H22C22.5523 9.5 23 9.94772 23 10.5V13.5C23 14.0523 22.5523 14.5 22 14.5H2C1.44772 14.5 1 14.0523 1 13.5V10.5Z" fill="#1E1E1E"/>
<path d="M1 19C1 18.4477 1.44772 18 2 18H22C22.5523 18 23 18.4477 23 19V22C23 22.5523 22.5523 23 22 23H2C1.44772 23 1 22.5523 1 22V19Z" fill="#1E1E1E"/>
</svg>
